<?xml version="1.0" encoding="utf-8"?>
<!-- Generator: Adobe Illustrator 27.0.0, SVG Export Plug-In . SVG Version: 6.00 Build 0)  -->
<svg version="1.1" id="Layer_1" xmlns="http://www.w3.org/2000/svg" xmlns:xlink="http://www.w3.org/1999/xlink" x="0px" y="0px"
	 viewBox="0 0 183.6 54" style="enable-background:new 0 0 183.6 54;" xml:space="preserve">
<style type="text/css">
	.st0{fill:#231F20;}
	.st1{clip-path:url(#SVGID_00000007427186998207675530000014924878800568579489_);fill:#FFFFFF;}
</style>
<polyline class="st0" points="57.22,48.92 53.21,48.92 53.21,48.32 54.3,48.32 54.3,40.08 53.21,40.08 53.21,39.48 57.22,39.48 
	57.22,40.08 56.14,40.08 56.14,48.32 57.22,48.32 57.22,48.92 "/>
<polyline class="st0" points="72.84,49.08 71.83,49.08 66.85,42.07 66.85,48.32 67.98,48.32 67.98,48.92 64.75,48.92 64.75,48.32 
	65.94,48.32 65.94,40.81 65.48,40.08 64.45,40.08 64.45,39.48 67.3,39.48 71.93,46.08 71.93,40.08 70.8,40.08 70.8,39.48 
	74.04,39.48 74.04,40.08 72.84,40.08 72.84,49.08 "/>
<path class="st0" d="M82.66,49.05h-0.79v-2.58h0.79v1.06c0.64,0.51,1.13,0.7,1.83,0.7c0.89,0,1.53-0.53,1.53-1.27
	c0-0.64-0.42-1.1-1.75-1.96c-1.4-0.89-1.57-1.03-1.95-1.46c-0.36-0.42-0.54-0.99-0.54-1.62c0-1.57,1.16-2.62,2.91-2.62
	c0.56,0,1,0.08,1.54,0.31v-0.43h0.77v2.45h-0.77v-0.99c-0.6-0.39-0.99-0.53-1.52-0.53c-0.74,0-1.32,0.53-1.32,1.2
	c0,0.57,0.33,0.93,1.7,1.8c0.66,0.43,1.07,0.69,1.23,0.8c0.33,0.23,0.63,0.54,0.87,0.93c0.27,0.44,0.4,0.92,0.4,1.47
	c0,1.63-1.19,2.78-2.86,2.78c-0.83,0-1.43-0.17-2.09-0.56V49.05"/>
<polyline class="st0" points="101.37,48.92 96.76,48.92 96.76,48.32 98.15,48.32 98.15,40.32 95.67,40.32 95.67,41.51 94.88,41.51 
	94.88,39.08 95.67,39.08 95.67,39.48 102.46,39.48 102.46,39.08 103.24,39.08 103.24,41.51 102.46,41.51 102.46,40.32 99.99,40.32 
	99.99,48.32 101.37,48.32 101.37,48.92 "/>
<polyline class="st0" points="113.43,48.92 109.42,48.92 109.42,48.32 110.51,48.32 110.51,40.08 109.42,40.08 109.42,39.48 
	113.43,39.48 113.43,40.08 112.36,40.08 112.36,48.32 113.43,48.32 113.43,48.92 "/>
<polyline class="st0" points="125.82,48.92 121.21,48.92 121.21,48.32 122.6,48.32 122.6,40.32 120.13,40.32 120.13,41.51 
	119.34,41.51 119.34,39.08 120.13,39.08 120.13,39.48 126.91,39.48 126.91,39.08 127.7,39.08 127.7,41.51 126.91,41.51 
	126.91,40.32 124.45,40.32 124.45,48.32 125.82,48.32 125.82,48.92 "/>
<path class="st0" d="M144.59,40.08h-1.2v5.38c0,1.62-0.56,2.63-1.78,3.21c-0.63,0.29-1.33,0.44-2.08,0.44
	c-2.32,0-3.82-1.28-3.82-3.25v-5.78h-1.09v-0.6h4.01v0.6h-1.07v5.34c0,1.45,0.26,2.1,0.99,2.49c0.34,0.17,0.76,0.27,1.19,0.27
	c1.72,0,2.72-1.02,2.72-2.76v-5.33h-1.19v-0.61h3.32V40.08"/>
<polyline class="st0" points="157.78,48.92 153.17,48.92 153.17,48.32 154.56,48.32 154.56,40.32 152.08,40.32 152.08,41.51 
	151.29,41.51 151.29,39.08 152.08,39.08 152.08,39.48 158.87,39.48 158.87,39.08 159.65,39.08 159.65,41.51 158.87,41.51 
	158.87,40.32 156.4,40.32 156.4,48.32 157.78,48.32 157.78,48.92 "/>
<polyline class="st0" points="173.4,48.92 166.58,48.92 166.58,48.32 167.67,48.32 167.67,40.08 166.58,40.08 166.58,39.48 
	172.48,39.48 172.48,39.08 173.25,39.08 173.25,41.35 172.5,41.35 172.5,40.32 169.52,40.32 169.52,43.7 171.81,43.7 171.81,42.72 
	172.58,42.71 172.58,45.53 171.81,45.55 171.81,44.54 169.52,44.54 169.52,48.08 172.62,48.08 172.62,47.02 173.4,47.02 
	173.4,48.92 "/>
<path class="st0" d="M51.58,32.36v-1.47h2.98V7.6h-2.98V6.13h12.08c3.62,0,6.56,2.9,6.56,6.52c0,2.98-2.62,5.6-5.84,5.88
	c1.63,0.2,2.23,0.36,3.22,0.83c2.46,1.15,3.89,3.46,3.89,6.16c0,3.9-3.02,6.84-7.07,6.84H51.58L51.58,32.36z M58.06,17.86h4.05
	c2.58,0,4.41-2.11,4.41-5.05c0-2.78-1.71-4.85-4.06-4.85h-4.41V17.86L58.06,17.86z M58.06,30.58h4.45c3.34,0,5.37-1.99,5.37-5.25
	c0-3.3-2.27-5.68-5.37-5.68h-4.45V30.58"/>
<path class="st0" d="M98.52,32.36h-3.38c-2.34,0-2.78-0.24-4.09-2.34l-5.92-9.42h-3.1v10.29h2.98v1.47h-9.46v-1.47h2.98V7.6h-2.98
	V6.13H86.6c3.85,0,6.04,1.07,7.24,3.54c0.51,1.07,0.79,2.27,0.79,3.54c0,3.86-2.15,6.32-5.96,6.88l5.73,8.82
	c0.95,1.47,1.59,1.95,2.58,1.95h1.55V32.36L98.52,32.36z M82.02,18.77h3.81c3.02,0,5.13-2.23,5.13-5.49c0-3.42-1.87-5.33-5.21-5.33
	h-3.74V18.77"/>
<path class="st0" d="M99.59,19.29c0-7.47,5.8-13.63,12.84-13.63c6.92,0,12.72,6.2,12.72,13.59c0,7.39-5.8,13.63-12.72,13.63
	C105.43,32.88,99.59,26.68,99.59,19.29L99.59,19.29z M103.53,19.25c0,6.72,3.74,11.57,8.9,11.57c5.09,0,8.79-4.89,8.79-11.57
	c0-6.68-3.7-11.53-8.74-11.53C107.26,7.72,103.53,12.49,103.53,19.25"/>
<path class="st0" d="M150.92,32.36h-9.06v-1.47h3.18l-2.78-7.15l-10.17-0.04l-2.9,7.15h3.3v1.51h-7.59v-1.51h2.07L137.29,5.3h1.43
	l9.94,25.56h2.27V32.36L150.92,32.36z M141.58,21.83l-4.25-11.17l-4.49,11.17H141.58"/>
<path class="st0" d="M153.43,32.36v-1.47h2.98V7.6h-2.98V6.13h11.73c7.15,0,13,5.88,13,13.08c0,7.35-5.72,13.16-13.04,13.16H153.43
	L153.43,32.36z M159.91,30.38h4.77c5.45,0,9.58-4.81,9.54-11.13c0-6.12-4.21-11.09-9.46-11.09h-4.85V30.38"/>
<g>
	<defs>
		<polyline id="SVGID_1_" points="3.93,6.08 43.58,6.08 43.58,49.02 3.93,49.02 3.93,6.08 		"/>
	</defs>
	<use xlink:href="#SVGID_1_"  style="overflow:visible;fill:#056EB6;"/>
	<clipPath id="SVGID_00000000221407245155011300000003063195979618758073_">
		<use xlink:href="#SVGID_1_"  style="overflow:visible;"/>
	</clipPath>
	<path style="clip-path:url(#SVGID_00000000221407245155011300000003063195979618758073_);fill:#FFFFFF;" d="M134,26.95
		c-16.79,17.38-39.88,28.11-65.37,28.11c-25.64,0-48.85-10.86-65.67-28.41c16.81,15.8,40.03,25.57,65.67,25.57
		C94.12,52.22,117.21,42.59,134,26.95"/>
	<path style="clip-path:url(#SVGID_00000000221407245155011300000003063195979618758073_);fill:#FFFFFF;" d="M134,17.49
		C117.21,34.87,94.12,45.6,68.63,45.6c-25.64,0-48.85-10.85-65.67-28.41c16.81,15.8,40.03,25.57,65.67,25.57
		C94.12,42.76,117.21,33.13,134,17.49"/>
	<path style="clip-path:url(#SVGID_00000000221407245155011300000003063195979618758073_);fill:#FFFFFF;" d="M134,8.04
		c-16.79,17.38-39.88,28.11-65.37,28.11c-25.64,0-48.85-10.86-65.67-28.41c16.81,15.8,40.03,25.57,65.67,25.57
		C94.12,33.31,117.21,23.68,134,8.04"/>
	<path style="clip-path:url(#SVGID_00000000221407245155011300000003063195979618758073_);fill:#FFFFFF;" d="M2.96,28.28
		C19.84,10.79,43.04,0,68.67,0c25.78,0,49.11,10.92,66.01,28.58C117.78,12.68,94.45,2.86,68.67,2.86
		C43.04,2.86,19.84,12.54,2.96,28.28"/>
	<path style="clip-path:url(#SVGID_00000000221407245155011300000003063195979618758073_);fill:#FFFFFF;" d="M2.96,37.79
		C19.84,20.31,43.04,9.51,68.67,9.51c25.78,0,49.11,10.92,66.01,28.58c-16.9-15.89-40.24-25.72-66.01-25.72
		C43.04,12.37,19.84,22.05,2.96,37.79"/>
	<path style="clip-path:url(#SVGID_00000000221407245155011300000003063195979618758073_);fill:#FFFFFF;" d="M2.96,47.3
		c16.88-17.48,40.09-28.28,65.71-28.28c25.78,0,49.11,10.92,66.01,28.58c-16.9-15.89-40.24-25.72-66.01-25.72
		C43.04,21.88,19.84,31.56,2.96,47.3"/>
</g>
</svg>
